<?xml version="1.0" encoding="UTF-8"?>
<svg width="24" height="24" viewBox="0 0 24 24" fill="none" xmlns="http://www.w3.org/2000/svg">
  <defs>
    <linearGradient id="themeGradient" x1="0%" y1="0%" x2="100%" y2="100%">
      <stop offset="0%" stop-color="#5e72e4" />
      <stop offset="100%" stop-color="#ff7eb3" />
    </linearGradient>
    <linearGradient id="paletteGradient" x1="0%" y1="0%" x2="100%" y2="100%">
      <stop offset="0%" stop-color="#36d6b7" />
      <stop offset="33%" stop-color="#5e72e4" />
      <stop offset="66%" stop-color="#ff7eb3" />
      <stop offset="100%" stop-color="#ffbb13" />
    </linearGradient>
  </defs>
  
  <!-- Color Palette -->
  <path d="M12,3 C16.97,3 21,7.03 21,12 C21,13.5 20.5,16 18,16 C17.5,16 17,15.5 17,15 C17,14.5 17.5,14 18,14 C18.5,14 19,13.5 19,13 C19,9.13 15.87,6 12,6 C8.13,6 5,9.13 5,13 C5,16.87 8.13,20 12,20 L12,22 C7.03,22 3,17.97 3,13 C3,8.03 7.03,4 12,4" stroke="url(#themeGradient)" stroke-width="1.5" fill="none" />
  
  <!-- Color Swatches -->
  <circle cx="7.5" cy="10.5" r="1.5" fill="#5e72e4" />
  <circle cx="10.5" cy="7.5" r="1.5" fill="#36d6b7" />
  <circle cx="13.5" cy="7.5" r="1.5" fill="#ff7eb3" />
  <circle cx="16.5" cy="10.5" r="1.5" fill="#ffbb13" />
  
  <!-- Sun/Moon -->
  <path d="M12,12 C13.1,12 14,12.9 14,14 C14,15.1 13.1,16 12,16 C10.9,16 10,15.1 10,14 C10,12.9 10.9,12 12,12 Z" stroke="url(#paletteGradient)" stroke-width="1.5" fill="none" />
  <path d="M12,10 L12,11 M12,17 L12,18 M9,14 L8,14 M16,14 L15,14 M14,16 L15,17 M10,16 L9,17 M14,12 L15,11 M10,12 L9,11" stroke="#36d6b7" stroke-width="1" stroke-linecap="round" />
</svg>