<svg xmlns="http://www.w3.org/2000/svg" viewBox="0 0 100 100" width="100" height="100">
  <!-- Comforting Hug Icon -->
  <defs>
    <radialGradient id="face-gradient" cx="50%" cy="50%" r="50%" fx="50%" fy="50%">
      <stop offset="0%" stop-color="#9FA8DA" />
      <stop offset="100%" stop-color="#5C6BC0" />
    </radialGradient>
    <filter id="shadow">
      <feDropShadow dx="0" dy="2" stdDeviation="2" flood-opacity="0.3" />
    </filter>
  </defs>
  
  <!-- Face Circle -->
  <circle cx="50" cy="50" r="40" fill="url(#face-gradient)" stroke="#5C6BC0" stroke-width="2" filter="url(#shadow)" />
  
  <!-- Eyes -->
  <path d="M35 45 Q35 40 40 40" fill="none" stroke="#3E2723" stroke-width="2.5" stroke-linecap="round" />
  <path d="M65 45 Q65 40 60 40" fill="none" stroke="#3E2723" stroke-width="2.5" stroke-linecap="round" />
  
  <!-- Soft Smile -->
  <path d="M35 60 Q50 65 65 60" fill="none" stroke="#3E2723" stroke-width="3" stroke-linecap="round" />
  
  <!-- Hug Arms - Blanket/Comfort style -->
  <path d="M20 40 Q10 55 20 75" fill="none" stroke="#5C6BC0" stroke-width="3" stroke-linecap="round" />
  <path d="M80 40 Q90 55 80 75" fill="none" stroke="#5C6BC0" stroke-width="3" stroke-linecap="round" />
  
  <!-- Blanket/Comfort Elements -->
  <path d="M20 75 Q50 85 80 75" fill="none" stroke="#5C6BC0" stroke-width="4" stroke-linecap="round" />
  
  <!-- Heart -->
  <path d="M50 25 Q40 15 30 25 Q20 35 30 45 Q40 55 50 45 Q60 55 70 45 Q80 35 70 25 Q60 15 50 25 Z" fill="#C5CAE9" opacity="0.5" />
  
  <!-- Comfort Stars -->
  <path d="M25 15 L28 22 L35 22 L30 27 L32 34 L25 30 L18 34 L20 27 L15 22 L22 22 Z" fill="#C5CAE9" opacity="0.8" />
  <path d="M75 15 L78 22 L85 22 L80 27 L82 34 L75 30 L68 34 L70 27 L65 22 L72 22 Z" fill="#C5CAE9" opacity="0.8" />
</svg>