<svg xmlns="http://www.w3.org/2000/svg" viewBox="0 0 100 100" width="100" height="100">
  <!-- Enthusiastic Hug Icon -->
  <defs>
    <radialGradient id="face-gradient" cx="50%" cy="50%" r="50%" fx="50%" fy="50%">
      <stop offset="0%" stop-color="#FFAB91" />
      <stop offset="100%" stop-color="#FF7043" />
    </radialGradient>
    <filter id="glow">
      <feGaussianBlur stdDeviation="2" result="blur" />
      <feComposite in="SourceGraphic" in2="blur" operator="over" />
    </filter>
  </defs>
  
  <!-- Face Circle -->
  <circle cx="50" cy="50" r="40" fill="url(#face-gradient)" stroke="#FF5722" stroke-width="2" />
  
  <!-- Excited Eyes -->
  <circle cx="35" cy="40" r="6" fill="#3E2723" />
  <circle cx="65" cy="40" r="6" fill="#3E2723" />
  
  <!-- Star-shaped sparkles in eyes -->
  <path d="M35 37 L36 40 L39 40 L37 42 L38 45 L35 43 L32 45 L33 42 L31 40 L34 40 Z" fill="white" />
  <path d="M65 37 L66 40 L69 40 L67 42 L68 45 L65 43 L62 45 L63 42 L61 40 L64 40 Z" fill="white" />
  
  <!-- Big Grin -->
  <path d="M30 60 Q50 80 70 60" fill="none" stroke="#3E2723" stroke-width="4" stroke-linecap="round" />
  
  <!-- Excited Arms Jumping -->
  <path d="M15 45 Q5 30 0 20" fill="none" stroke="#FF5722" stroke-width="3" stroke-linecap="round" />
  <path d="M85 45 Q95 30 100 20" fill="none" stroke="#FF5722" stroke-width="3" stroke-linecap="round" />
  
  <!-- Excited Secondary Arms Hugging -->
  <path d="M15 55 Q5 65 15 75" fill="none" stroke="#FF5722" stroke-width="3" stroke-linecap="round" />
  <path d="M85 55 Q95 65 85 75" fill="none" stroke="#FF5722" stroke-width="3" stroke-linecap="round" />
  
  <!-- Enthusiasm Rays -->
  <path d="M20 15 L15 5" fill="none" stroke="#FFCC80" stroke-width="2" stroke-linecap="round" filter="url(#glow)" />
  <path d="M50 10 L50 0" fill="none" stroke="#FFCC80" stroke-width="2" stroke-linecap="round" filter="url(#glow)" />
  <path d="M80 15 L85 5" fill="none" stroke="#FFCC80" stroke-width="2" stroke-linecap="round" filter="url(#glow)" />
  
  <!-- Excitement Motion Lines -->
  <path d="M15 40 L5 40" fill="none" stroke="#FFCC80" stroke-width="2" stroke-dasharray="3,3" />
  <path d="M85 40 L95 40" fill="none" stroke="#FFCC80" stroke-width="2" stroke-dasharray="3,3" />
</svg>