<svg width="64" height="64" viewBox="0 0 64 64" xmlns="http://www.w3.org/2000/svg">
  <!-- Rabbit group hug icon - Three rabbits in a circle -->
  <g transform="translate(2, 2)">
    <!-- Background -->
    <circle cx="30" cy="30" r="28" fill="#F0F8FF" fill-opacity="0.3" />
    
    <!-- Center circle/heart -->
    <circle cx="30" cy="30" r="6" fill="#FFE0E0" />
    <path d="M30 26C32 24 34 25 35 26C36 27 35 29 30 33C25 29 24 27 25 26C26 25 28 24 30 26Z" fill="#FF6B6B" />
    
    <!-- First rabbit (top) -->
    <g transform="translate(30, 18) rotate(0)">
      <!-- Body -->
      <ellipse cx="0" cy="0" rx="8" ry="6" fill="#D4C1A9" stroke="#333" stroke-width="0.3" />
      
      <!-- Head -->
      <ellipse cx="0" cy="-7" rx="5" ry="4.5" fill="#E6D2BC" stroke="#333" stroke-width="0.3" />
      
      <!-- Eyes -->
      <circle cx="-1.5" cy="-7.5" r="0.7" fill="#333" />
      <circle cx="1.5" cy="-7.5" r="0.7" fill="#333" />
      
      <!-- Nose -->
      <ellipse cx="0" cy="-6" rx="1" ry="0.7" fill="#FFACAC" />
      
      <!-- Ears -->
      <path d="M-3 -10C-4 -15 -2 -18 0 -19C2 -18 4 -15 3 -10" fill="#E6D2BC" stroke="#333" stroke-width="0.3" />
      
      <!-- Arms reaching to center -->
      <path d="M-4 1C-8 4 -8 8 -4 12" fill="none" stroke="#D4C1A9" stroke-width="1.5" stroke-linecap="round" />
      <path d="M4 1C8 4 8 8 4 12" fill="none" stroke="#D4C1A9" stroke-width="1.5" stroke-linecap="round" />
    </g>
    
    <!-- Second rabbit (bottom left) -->
    <g transform="translate(18, 37) rotate(240)">
      <!-- Body -->
      <ellipse cx="0" cy="0" rx="8" ry="6" fill="#C4B198" stroke="#333" stroke-width="0.3" />
      
      <!-- Head -->
      <ellipse cx="0" cy="-7" rx="5" ry="4.5" fill="#D4C1A9" stroke="#333" stroke-width="0.3" />
      
      <!-- Eyes -->
      <circle cx="-1.5" cy="-7.5" r="0.7" fill="#333" />
      <circle cx="1.5" cy="-7.5" r="0.7" fill="#333" />
      
      <!-- Nose -->
      <ellipse cx="0" cy="-6" rx="1" ry="0.7" fill="#FFACAC" />
      
      <!-- Ears -->
      <path d="M-3 -10C-4 -15 -2 -18 0 -19C2 -18 4 -15 3 -10" fill="#D4C1A9" stroke="#333" stroke-width="0.3" />
      
      <!-- Arms reaching to center -->
      <path d="M-4 1C-8 4 -8 8 -4 12" fill="none" stroke="#C4B198" stroke-width="1.5" stroke-linecap="round" />
      <path d="M4 1C8 4 8 8 4 12" fill="none" stroke="#C4B198" stroke-width="1.5" stroke-linecap="round" />
    </g>
    
    <!-- Third rabbit (bottom right) -->
    <g transform="translate(42, 37) rotate(120)">
      <!-- Body -->
      <ellipse cx="0" cy="0" rx="8" ry="6" fill="#BDAA90" stroke="#333" stroke-width="0.3" />
      
      <!-- Head -->
      <ellipse cx="0" cy="-7" rx="5" ry="4.5" fill="#D4C1A9" stroke="#333" stroke-width="0.3" />
      
      <!-- Eyes -->
      <circle cx="-1.5" cy="-7.5" r="0.7" fill="#333" />
      <circle cx="1.5" cy="-7.5" r="0.7" fill="#333" />
      
      <!-- Nose -->
      <ellipse cx="0" cy="-6" rx="1" ry="0.7" fill="#FFACAC" />
      
      <!-- Ears -->
      <path d="M-3 -10C-4 -15 -2 -18 0 -19C2 -18 4 -15 3 -10" fill="#D4C1A9" stroke="#333" stroke-width="0.3" />
      
      <!-- Arms reaching to center -->
      <path d="M-4 1C-8 4 -8 8 -4 12" fill="none" stroke="#BDAA90" stroke-width="1.5" stroke-linecap="round" />
      <path d="M4 1C8 4 8 8 4 12" fill="none" stroke="#BDAA90" stroke-width="1.5" stroke-linecap="round" />
    </g>
  </g>
</svg>