<?xml version="1.0" encoding="UTF-8"?>
<svg width="120" height="120" viewBox="0 0 120 120" xmlns="http://www.w3.org/2000/svg">
  <path d="M84.3,35.7c-8.3-8.3-21.8-8.3-30.1,0c-0.4,0.4-0.7,0.8-1,1.2c-0.3-0.4-0.7-0.8-1-1.2c-8.3-8.3-21.8-8.3-30.1,0
    s-8.3,21.8,0,30.1L52,95.7c1.6,1.6,4.1,1.6,5.7,0l29.9-29.9c8.3-8.3,8.3-21.8,0-30.1L84.3,35.7z" fill="#EC4899"/>
  <path d="M90.6,29.4c-9.8-9.8-25.8-9.8-35.6,0c-0.2,0.2-0.5,0.4-0.7,0.6c-0.2-0.2-0.5-0.4-0.7-0.6c-9.8-9.8-25.8-9.8-35.6,0
    c-9.8,9.8-9.8,25.8,0,35.6l34.9,34.9c0.8,0.8,1.9,1.2,2.9,1.2s2.1-0.4,2.9-1.2l35.6-35.6C100.5,54.5,100.5,39.2,90.6,29.4z
     M85,59.3L54.6,89.7c-0.2,0.2-0.4,0.2-0.6,0L19.7,55.4c-7.2-7.2-7.2-19,0-26.3c3.5-3.5,8.2-5.5,13.1-5.5s9.6,1.9,13.1,5.5
    c1.1,1.1,2,2.3,2.7,3.6l1.3,2.3l1.3-2.3c0.7-1.3,1.6-2.5,2.7-3.6c3.5-3.5,8.2-5.5,13.1-5.5s9.6,1.9,13.1,5.5
    C92.2,40.3,92.2,52.1,85,59.3z" fill="#8B5CF6"/>
</svg>