<svg width="64" height="64" viewBox="0 0 64 64" xmlns="http://www.w3.org/2000/svg">
  <!-- Yin-Yang inspired virtual hug icon -->
  <g transform="translate(2, 2)">
    <!-- Background -->
    <circle cx="30" cy="30" r="28" fill="#F0F0F0" fill-opacity="0.3" stroke="#333" stroke-width="0.5" />
    
    <!-- Yin-Yang base -->
    <path d="M30 2A28 28 0 0 1 30 58A14 14 0 0 1 30 30A14 14 0 0 0 30 2Z" fill="black" />
    <path d="M30 2A28 28 0 0 0 30 58A14 14 0 0 0 30 30A14 14 0 0 1 30 2Z" fill="white" />
    
    <!-- Small circles in Yin-Yang -->
    <circle cx="30" cy="16" r="3.5" fill="white" />
    <circle cx="30" cy="44" r="3.5" fill="black" />
    
    <!-- Digital/virtual elements -->
    <g fill="none" stroke="#7E57C2" stroke-width="0.8">
      <!-- Digital circuit pattern on the black side -->
      <path d="M18 10L10 10L10 20L15 20" />
      <path d="M15 20L20 20L20 25" />
      <path d="M20 15L25 15L25 25L20 25" />
      <path d="M12 30L18 30L18 38L25 38" />
      <path d="M12 45L18 45L18 38" />
      <path d="M25 50L25 38" />
    </g>
    
    <g fill="none" stroke="#FF9800" stroke-width="0.8">
      <!-- Digital circuit pattern on the white side -->
      <path d="M42 10L50 10L50 20L45 20" />
      <path d="M45 20L40 20L40 25" />
      <path d="M40 15L35 15L35 25L40 25" />
      <path d="M48 30L42 30L42 38L35 38" />
      <path d="M48 45L42 45L42 38" />
      <path d="M35 50L35 38" />
    </g>
    
    <!-- Heart at the center -->
    <path d="M30 29C32 27 34 28 35 29C36 30 35 32 30 36C25 32 24 30 25 29C26 28 28 27 30 29Z" fill="#E91E63" />
    
    <!-- Connection waves (virtual connection) -->
    <g fill="none" stroke="#7E57C2" stroke-opacity="0.6" stroke-width="0.8">
      <path d="M10 30A25 25 0 0 0 50 30" stroke-dasharray="2,2" />
      <path d="M15 25A20 20 0 0 0 45 25" stroke-dasharray="2,2" />
      <path d="M15 35A20 20 0 0 0 45 35" stroke-dasharray="2,2" />
    </g>
  </g>
</svg>