<svg xmlns="http://www.w3.org/2000/svg" viewBox="0 0 100 100" width="100" height="100">
  <!-- Virtual Hug Icon -->
  <defs>
    <radialGradient id="face-gradient" cx="50%" cy="50%" r="50%" fx="50%" fy="50%">
      <stop offset="0%" stop-color="#B39DDB" />
      <stop offset="100%" stop-color="#7E57C2" />
    </radialGradient>
    <linearGradient id="tech-gradient" x1="0%" y1="0%" x2="100%" y2="100%">
      <stop offset="0%" stop-color="#7986CB" />
      <stop offset="100%" stop-color="#3949AB" />
    </linearGradient>
    <filter id="glow-tech">
      <feGaussianBlur stdDeviation="1.5" result="blur" />
      <feComposite in="SourceGraphic" in2="blur" operator="over" />
    </filter>
  </defs>
  
  <!-- Digital Circle Background -->
  <circle cx="50" cy="50" r="45" fill="#EDE7F6" opacity="0.3" />
  
  <!-- Tech Border -->
  <circle cx="50" cy="50" r="42" fill="none" stroke="url(#tech-gradient)" stroke-width="2" stroke-dasharray="3,2" />
  
  <!-- Face Circle -->
  <circle cx="50" cy="50" r="35" fill="url(#face-gradient)" stroke="#7E57C2" stroke-width="2" />
  
  <!-- Digital Eyes -->
  <rect x="30" y="38" width="10" height="5" rx="2" fill="#3E2723" />
  <rect x="60" y="38" width="10" height="5" rx="2" fill="#3E2723" />
  
  <!-- Digital Smile -->
  <path d="M35 60 L40 65 L45 60 L50 65 L55 60 L60 65 L65 60" fill="none" stroke="#3E2723" stroke-width="2.5" stroke-linecap="round" />
  
  <!-- Virtual Hug Arms -->
  <path d="M20 45 Q10 55 20 70" fill="none" stroke="#7E57C2" stroke-width="3" stroke-linecap="round" filter="url(#glow-tech)" />
  <path d="M80 45 Q90 55 80 70" fill="none" stroke="#7E57C2" stroke-width="3" stroke-linecap="round" filter="url(#glow-tech)" />
  
  <!-- Digital Connection Elements -->
  <line x1="15" y1="25" x2="25" y2="25" stroke="#3949AB" stroke-width="1.5" stroke-linecap="round" />
  <line x1="15" y1="30" x2="30" y2="30" stroke="#3949AB" stroke-width="1.5" stroke-linecap="round" />
  <line x1="15" y1="35" x2="20" y2="35" stroke="#3949AB" stroke-width="1.5" stroke-linecap="round" />
  
  <line x1="85" y1="25" x2="75" y2="25" stroke="#3949AB" stroke-width="1.5" stroke-linecap="round" />
  <line x1="85" y1="30" x2="70" y2="30" stroke="#3949AB" stroke-width="1.5" stroke-linecap="round" />
  <line x1="85" y1="35" x2="80" y2="35" stroke="#3949AB" stroke-width="1.5" stroke-linecap="round" />
  
  <!-- Digital Heart -->
  <path d="M50 25 L45 20 L40 25 L45 30 Z" fill="#D1C4E9" opacity="0.9" />
  
  <!-- Wi-Fi Signals -->
  <path d="M30 15 Q50 5 70 15" fill="none" stroke="#7E57C2" stroke-width="1.5" stroke-dasharray="2,2" filter="url(#glow-tech)" />
  <path d="M35 10 Q50 0 65 10" fill="none" stroke="#7E57C2" stroke-width="1.5" stroke-dasharray="2,2" filter="url(#glow-tech)" />
</svg>