<?xml version="1.0" encoding="UTF-8"?>
<svg width="240" height="240" viewBox="0 0 240 240" fill="none" xmlns="http://www.w3.org/2000/svg">
  <defs>
    <linearGradient id="healGradient" x1="0%" y1="0%" x2="100%" y2="100%">
      <stop offset="0%" stop-color="#36d6b7" />
      <stop offset="100%" stop-color="#29b99e" />
    </linearGradient>
    <linearGradient id="personGradient" x1="0%" y1="0%" x2="100%" y2="100%">
      <stop offset="0%" stop-color="#5e72e4" />
      <stop offset="100%" stop-color="#3a56d4" />
    </linearGradient>
    <linearGradient id="auraGradient" x1="0%" y1="0%" x2="100%" y2="100%">
      <stop offset="0%" stop-color="#36d6b7" stop-opacity="0.8" />
      <stop offset="50%" stop-color="#a5ffe9" stop-opacity="0.4" />
      <stop offset="100%" stop-color="#d6ffff" stop-opacity="0.2" />
    </linearGradient>
    <filter id="glow" x="-20%" y="-20%" width="140%" height="140%">
      <feGaussianBlur stdDeviation="6" result="blur" />
      <feComposite in="SourceGraphic" in2="blur" operator="over" />
    </filter>
    <filter id="healingGlow" x="-30%" y="-30%" width="160%" height="160%">
      <feGaussianBlur stdDeviation="8" result="blur" />
      <feColorMatrix type="matrix" values="0 0 0 0 0.21  0 1 0 0 0.84  0 0 1 0 0.72  0 0 0 0.7 0" result="glow" />
      <feBlend in="SourceGraphic" in2="glow" mode="screen" />
    </filter>
    <filter id="shadow" x="-10%" y="-10%" width="120%" height="120%">
      <feDropShadow dx="0" dy="4" stdDeviation="3" flood-color="#000" flood-opacity="0.2" />
    </filter>
  </defs>
  
  <!-- Background Circle -->
  <circle cx="120" cy="120" r="112" fill="white" filter="url(#shadow)" />
  
  <!-- Healing Background Pattern -->
  <path d="M80,40 Q120,30 160,40 Q170,80 160,120 Q120,130 80,120 Q70,80 80,40 Z" fill="url(#auraGradient)" filter="url(#healingGlow)" />
  
  <!-- Person Being Healed (Right) - Slightly slumped -->
  <g transform="translate(130, 60)">
    <path d="M24,0 C38,0 48,16 48,30 C48,44 38,60 24,60 C10,60 0,44 0,30 C0,16 10,0 24,0 Z" fill="url(#personGradient)" />
    <path d="M24,60 C38,60 50,80 50,115 L-2,115 C-2,80 10,60 24,60 Z" fill="url(#personGradient)" />
  </g>
  
  <!-- Healing Person (Left) -->
  <g transform="translate(70, 60)">
    <path d="M24,0 C38,0 48,16 48,30 C48,44 38,60 24,60 C10,60 0,44 0,30 C0,16 10,0 24,0 Z" fill="url(#healGradient)" />
    <path d="M24,60 C38,60 50,80 50,115 L-2,115 C-2,80 10,60 24,60 Z" fill="url(#healGradient)" />
  </g>
  
  <!-- Healing Embrace - Arms envelope the person being comforted -->
  <path d="M90,102 C100,80 140,80 150,102" stroke="#36d6b7" stroke-width="8" stroke-linecap="round" fill="none" filter="url(#glow)" />
  
  <!-- Healing Energy Waves -->
  <path d="M65,65 Q120,50 175,65" stroke="#36d6b7" stroke-width="3" stroke-dasharray="0 4" opacity="0.7" />
  <path d="M70,75 Q120,60 170,75" stroke="#36d6b7" stroke-width="3" stroke-dasharray="0 4" opacity="0.7" />
  <path d="M75,85 Q120,70 165,85" stroke="#36d6b7" stroke-width="3" stroke-dasharray="0 4" opacity="0.7" />
  
  <!-- Healing Symbols -->
  <circle cx="120" cy="110" r="25" fill="none" stroke="#36d6b7" stroke-width="3" opacity="0.6" />
  <path d="M120,95 L120,125 M105,110 L135,110" stroke="#36d6b7" stroke-width="4" stroke-linecap="round" />
  
  <!-- Small Energy Particles -->
  <circle cx="95" cy="70" r="3" fill="#36d6b7" opacity="0.8" />
  <circle cx="145" cy="70" r="3" fill="#36d6b7" opacity="0.8" />
  <circle cx="110" cy="55" r="3" fill="#36d6b7" opacity="0.8" />
  <circle cx="130" cy="55" r="3" fill="#36d6b7" opacity="0.8" />
  <circle cx="120" cy="45" r="3" fill="#36d6b7" opacity="0.8" />
  
  <!-- Pulse Rings -->
  <circle cx="120" cy="140" r="25" stroke="#36d6b7" stroke-width="2" opacity="0.3" stroke-dasharray="4 2" fill="none" />
  <circle cx="120" cy="140" r="35" stroke="#36d6b7" stroke-width="2" opacity="0.2" stroke-dasharray="4 2" fill="none" />
  <circle cx="120" cy="140" r="45" stroke="#36d6b7" stroke-width="2" opacity="0.1" stroke-dasharray="4 2" fill="none" />
</svg>