<svg width="64" height="64" viewBox="0 0 64 64" xmlns="http://www.w3.org/2000/svg">
  <!-- Cat hug icon - Two cats hugging each other -->
  <g transform="translate(2, 2)">
    <!-- Background -->
    <circle cx="30" cy="30" r="28" fill="#FFF8E1" fill-opacity="0.3" />
    
    <!-- First cat (left - black) -->
    <g>
      <!-- Body -->
      <ellipse cx="20" cy="35" rx="10" ry="9" fill="#333" stroke="#111" stroke-width="0.3" />
      
      <!-- Head -->
      <circle cx="20" cy="22" r="8" fill="#333" stroke="#111" stroke-width="0.3" />
      
      <!-- Ears -->
      <path d="M15 18L13 14L16 16Z" fill="#333" stroke="#111" stroke-width="0.3" />
      <path d="M25 18L27 14L24 16Z" fill="#333" stroke="#111" stroke-width="0.3" />
      
      <!-- Face -->
      <circle cx="17" cy="21" r="1.2" fill="#5DADE2" /> <!-- Left eye -->
      <circle cx="23" cy="21" r="1.2" fill="#5DADE2" /> <!-- Right eye -->
      <ellipse cx="20" cy="24" rx="1.2" ry="0.8" fill="#FF9AA2" /> <!-- Nose -->
      <path d="M17 26L20 27L23 26" fill="none" stroke="#111" stroke-width="0.5" /> <!-- Mouth -->
      <path d="M16 24L14 23" fill="none" stroke="#111" stroke-width="0.5" /> <!-- Left whisker 1 -->
      <path d="M16 25L14 25" fill="none" stroke="#111" stroke-width="0.5" /> <!-- Left whisker 2 -->
      <path d="M16 26L14 27" fill="none" stroke="#111" stroke-width="0.5" /> <!-- Left whisker 3 -->
      <path d="M24 24L26 23" fill="none" stroke="#111" stroke-width="0.5" /> <!-- Right whisker 1 -->
      <path d="M24 25L26 25" fill="none" stroke="#111" stroke-width="0.5" /> <!-- Right whisker 2 -->
      <path d="M24 26L26 27" fill="none" stroke="#111" stroke-width="0.5" /> <!-- Right whisker 3 -->
      
      <!-- Paw -->
      <path d="M26 35C30 33 32 35 33 38" fill="none" stroke="#333" stroke-width="3" stroke-linecap="round" />
    </g>
    
    <!-- Second cat (right - white) -->
    <g>
      <!-- Body -->
      <ellipse cx="40" cy="35" rx="10" ry="9" fill="#FFFFFF" stroke="#333" stroke-width="0.3" />
      
      <!-- Head -->
      <circle cx="40" cy="22" r="8" fill="#FFFFFF" stroke="#333" stroke-width="0.3" />
      
      <!-- Ears -->
      <path d="M35 18L33 14L36 16Z" fill="#FFFFFF" stroke="#333" stroke-width="0.3" />
      <path d="M45 18L47 14L44 16Z" fill="#FFFFFF" stroke="#333" stroke-width="0.3" />
      
      <!-- Face -->
      <circle cx="37" cy="21" r="1.2" fill="#5DADE2" /> <!-- Left eye -->
      <circle cx="43" cy="21" r="1.2" fill="#5DADE2" /> <!-- Right eye -->
      <ellipse cx="40" cy="24" rx="1.2" ry="0.8" fill="#FF9AA2" /> <!-- Nose -->
      <path d="M37 26L40 27L43 26" fill="none" stroke="#333" stroke-width="0.5" /> <!-- Mouth -->
      <path d="M36 24L34 23" fill="none" stroke="#333" stroke-width="0.5" /> <!-- Left whisker 1 -->
      <path d="M36 25L34 25" fill="none" stroke="#333" stroke-width="0.5" /> <!-- Left whisker 2 -->
      <path d="M36 26L34 27" fill="none" stroke="#333" stroke-width="0.5" /> <!-- Left whisker 3 -->
      <path d="M44 24L46 23" fill="none" stroke="#333" stroke-width="0.5" /> <!-- Right whisker 1 -->
      <path d="M44 25L46 25" fill="none" stroke="#333" stroke-width="0.5" /> <!-- Right whisker 2 -->
      <path d="M44 26L46 27" fill="none" stroke="#333" stroke-width="0.5" /> <!-- Right whisker 3 -->
      
      <!-- Paw -->
      <path d="M34 35C30 33 28 35 27 38" fill="none" stroke="#FFFFFF" stroke-width="3" stroke-linecap="round" />
    </g>
    
    <!-- Hearts -->
    <path d="M30 28C32 26 34 27 35 28C36 29 35 31 30 35C25 31 24 29 25 28C26 27 28 26 30 28Z" fill="#FF6B6B" />
    
    <!-- Tails intertwined -->
    <path d="M15 40C10 45 15 50 20 45" fill="none" stroke="#333" stroke-width="2" stroke-linecap="round" />
    <path d="M45 40C50 45 45 50 40 45" fill="none" stroke="#FFFFFF" stroke-width="2" stroke-linecap="round" />
  </g>
</svg>