<svg width="64" height="64" viewBox="0 0 64 64" xmlns="http://www.w3.org/2000/svg">
  <!-- Unicorn hug icon -->
  <g transform="translate(2, 2)">
    <!-- Background with subtle gradient -->
    <circle cx="30" cy="30" r="28" fill="#F8F6FF" fill-opacity="0.5" />
    
    <!-- First unicorn (main) -->
    <g>
      <!-- Body -->
      <ellipse cx="36" cy="35" rx="12" ry="8" fill="#FFFFFF" stroke="#A990E4" stroke-width="0.5" />
      
      <!-- Head -->
      <path d="M36 32C32 30 30 25 34 20C36 18 40 18 42 20C45 24 42 30 36 32Z" fill="#FFFFFF" stroke="#A990E4" stroke-width="0.5" />
      
      <!-- Horn -->
      <path d="M38 17L37 11" fill="none" stroke="#FFD700" stroke-width="1.5" stroke-linecap="round" />
      
      <!-- Mane -->
      <g>
        <path d="M39 22C40 21 41 19 39 18" fill="none" stroke="#FF9AA2" stroke-width="1.5" stroke-linecap="round" />
        <path d="M39 24C41 23 43 22 42 20" fill="none" stroke="#FFB7B2" stroke-width="1.5" stroke-linecap="round" />
        <path d="M38 26C40 26 43 25 43 22" fill="none" stroke="#FFDAC1" stroke-width="1.5" stroke-linecap="round" />
        <path d="M34 28C37 29 41 28 42 25" fill="none" stroke="#B5EAD7" stroke-width="1.5" stroke-linecap="round" />
        <path d="M30 28C32 30 36 31 40 29" fill="none" stroke="#C7CEEA" stroke-width="1.5" stroke-linecap="round" />
      </g>
      
      <!-- Eye -->
      <circle cx="35" cy="22" r="1" fill="#333" />
      
      <!-- Smile -->
      <path d="M34 24C35 25 36 25 37 24" fill="none" stroke="#333" stroke-width="0.5" />
      
      <!-- Leg hugging -->
      <path d="M27 35C25 30 23 32 22 35" fill="none" stroke="#FFFFFF" stroke-width="3" stroke-linecap="round" />
    </g>
    
    <!-- Small creature being hugged (fox) -->
    <g>
      <!-- Body -->
      <ellipse cx="18" cy="35" rx="8" ry="6" fill="#FF8C42" stroke="#DC6B20" stroke-width="0.3" />
      
      <!-- Head -->
      <circle cx="18" cy="27" r="5" fill="#FF8C42" stroke="#DC6B20" stroke-width="0.3" />
      
      <!-- Ears -->
      <path d="M15 24L13 21L16 23Z" fill="#FF8C42" stroke="#DC6B20" stroke-width="0.3" />
      <path d="M21 24L23 21L20 23Z" fill="#FF8C42" stroke="#DC6B20" stroke-width="0.3" />
      
      <!-- Face -->
      <circle cx="17" cy="26" r="0.8" fill="#333" /> <!-- Eye -->
      <ellipse cx="18" cy="28" rx="1" ry="0.7" fill="#DC6B20" /> <!-- Nose -->
      
      <!-- Tail -->
      <path d="M12 35C10 33 10 39 13 38" fill="#FF8C42" stroke="#DC6B20" stroke-width="0.3" />
    </g>
    
    <!-- Hearts and magic sparkles -->
    <g>
      <path d="M27 25C29 23 31 24 32 25C33 26 32 28 27 32C22 28 21 26 22 25C23 24 25 23 27 25Z" fill="#FF6B6B" />
      
      <!-- Sparkles -->
      <g fill="#FFD700">
        <circle cx="25" cy="18" r="0.8" />
        <circle cx="30" cy="16" r="0.6" />
        <circle cx="22" cy="21" r="0.5" />
        <circle cx="20" cy="17" r="0.7" />
        <circle cx="18" cy="20" r="0.6" />
        <circle cx="32" cy="20" r="0.5" />
        <circle cx="35" cy="15" r="0.7" />
      </g>
    </g>
    
    <!-- Rainbow arc -->
    <path d="M15 20C20 15 25 13 30 13C35 13 40 15 45 20" fill="none" stroke="url(#rainbowGradient)" stroke-width="1.5" stroke-opacity="0.5" />
    
    <!-- Define the rainbow gradient -->
    <defs>
      <linearGradient id="rainbowGradient" x1="0%" y1="0%" x2="100%" y2="0%">
        <stop offset="0%" stop-color="#FF9AA2" />
        <stop offset="20%" stop-color="#FFB7B2" />
        <stop offset="40%" stop-color="#FFDAC1" />
        <stop offset="60%" stop-color="#B5EAD7" />
        <stop offset="80%" stop-color="#C7CEEA" />
        <stop offset="100%" stop-color="#A990E4" />
      </linearGradient>
    </defs>
  </g>
</svg>