<?xml version="1.0" encoding="UTF-8"?>
<svg width="24" height="24" viewBox="0 0 24 24" fill="none" xmlns="http://www.w3.org/2000/svg">
  <defs>
    <linearGradient id="hugGradient" x1="0%" y1="0%" x2="100%" y2="100%">
      <stop offset="0%" stop-color="#5e72e4" />
      <stop offset="100%" stop-color="#ff7eb3" />
    </linearGradient>
  </defs>
  
  <!-- Left person -->
  <path d="M7,9 C7.5,9 8,9.5 8,10 L8,14 C8,14.5 7.5,15 7,15 C6.5,15 6,14.5 6,14 L6,10 C6,9.5 6.5,9 7,9 Z" fill="#5e72e4" />
  <path d="M5,11 C5.5,11 6,11.5 6,12 L6,16 C6,16.5 5.5,17 5,17 C4.5,17 4,16.5 4,16 L4,12 C4,11.5 4.5,11 5,11 Z" fill="#5e72e4" />
  <path d="M9,8 C10.1,8 11,8.9 11,10 L11,14 C11,15.1 10.1,16 9,16 L9,8 Z" fill="#5e72e4" />
  
  <!-- Body/Center -->
  <path d="M9,7 C10.66,7 12,8.34 12,10 C12,8.34 13.34,7 15,7 C16.66,7 18,8.34 18,10 C18,15 12,18 12,18 C12,18 6,15 6,10 C6,8.34 7.34,7 9,7 Z" stroke="url(#hugGradient)" stroke-width="1.5" fill="none" />
  
  <!-- Right person -->
  <path d="M17,9 C16.5,9 16,9.5 16,10 L16,14 C16,14.5 16.5,15 17,15 C17.5,15 18,14.5 18,14 L18,10 C18,9.5 17.5,9 17,9 Z" fill="#ff7eb3" />
  <path d="M19,11 C18.5,11 18,11.5 18,12 L18,16 C18,16.5 18.5,17 19,17 C19.5,17 20,16.5 20,16 L20,12 C20,11.5 19.5,11 19,11 Z" fill="#ff7eb3" />
  <path d="M15,8 C13.9,8 13,8.9 13,10 L13,14 C13,15.1 13.9,16 15,16 L15,8 Z" fill="#ff7eb3" />
</svg>