<?xml version="1.0" encoding="UTF-8" standalone="no"?>
<svg width="120" height="120" viewBox="0 0 120 120" xmlns="http://www.w3.org/2000/svg">
  <defs>
    <linearGradient id="bg-gradient" x1="0%" y1="0%" x2="100%" y2="100%">
      <stop offset="0%" style="stop-color:#8a2387;stop-opacity:1" />
      <stop offset="50%" style="stop-color:#e94057;stop-opacity:1" />
      <stop offset="100%" style="stop-color:#f27121;stop-opacity:1" />
    </linearGradient>
  </defs>
  <rect width="120" height="120" rx="10" fill="url(#bg-gradient)" />
  
  <!-- First person (blue) -->
  <path d="M45,40 C39,40 35,44 35,50 C35,56 39,60 45,60 L55,60 L55,50 C55,44 51,40 45,40 Z" fill="#6A70B8" />
  <path d="M40,70 L40,85 C40,90 44,95 50,95 C56,95 60,90 60,85 L60,70 L40,70 Z" fill="#6A70B8" />
  <path d="M45,30 C40,30 36,34 36,39 C36,44 40,48 45,48 C50,48 54,44 54,39 C54,34 50,30 45,30 Z" fill="#F5D0C5" />
  <path d="M45,33 C41,33 38,36 38,39 C38,42 41,45 45,45 C49,45 52,42 52,39 C52,36 49,33 45,33 Z" fill="#F5D0C5" />
  
  <!-- Second person (pink) -->
  <path d="M75,40 C81,40 85,44 85,50 C85,56 81,60 75,60 L65,60 L65,50 C65,44 69,40 75,40 Z" fill="#E07A97" />
  <path d="M80,70 L80,85 C80,90 76,95 70,95 C64,95 60,90 60,85 L60,70 L80,70 Z" fill="#E07A97" />
  <path d="M75,30 C80,30 84,34 84,39 C84,44 80,48 75,48 C70,48 66,44 66,39 C66,34 70,30 75,30 Z" fill="#F5D0C5" />
  <path d="M75,33 C79,33 82,36 82,39 C82,42 79,45 75,45 C71,45 68,42 68,39 C68,36 71,33 75,33 Z" fill="#F5D0C5" />
  
  <!-- Arms -->
  <path d="M40,65 C35,65 30,70 30,75 C30,80 35,85 40,85 L40,65 Z" fill="#6A70B8" />
  <path d="M80,65 C85,65 90,70 90,75 C90,80 85,85 80,85 L80,65 Z" fill="#E07A97" />
  <path d="M40,72 C35,70 33,75 35,80 L40,80 L40,72 Z" fill="#6A70B8" />
  <path d="M80,72 C85,70 87,75 85,80 L80,80 L80,72 Z" fill="#E07A97" />
  
  <!-- Hugging Arms -->
  <path d="M45,65 C50,65 55,65 60,65 L60,70 L45,70 Z" fill="#6A70B8" />
  <path d="M75,65 C70,65 65,65 60,65 L60,70 L75,70 Z" fill="#E07A97" />
  
  <!-- Facial features for first person -->
  <circle cx="42" cy="37" r="1.5" fill="#333" />
  <circle cx="48" cy="37" r="1.5" fill="#333" />
  <path d="M45,41 C46,43 47,42 47,41" stroke="#333" stroke-width="1" fill="none" />
  
  <!-- Facial features for second person -->
  <circle cx="72" cy="37" r="1.5" fill="#333" />
  <circle cx="78" cy="37" r="1.5" fill="#333" />
  <path d="M75,41 C74,43 73,42 73,41" stroke="#333" stroke-width="1" fill="none" />

  <!-- Title -->
  <text x="60" y="110" text-anchor="middle" font-family="Arial, sans-serif" font-size="12" font-weight="bold" fill="white">Bear Hug</text>
</svg>