<?xml version="1.0" encoding="UTF-8"?>
<svg width="128" height="128" viewBox="0 0 128 128" fill="none" xmlns="http://www.w3.org/2000/svg">
  <defs>
    <linearGradient id="comfortGradient" x1="0%" y1="0%" x2="100%" y2="100%">
      <stop offset="0%" stop-color="#ff7eb3" />
      <stop offset="100%" stop-color="#ff4081" />
    </linearGradient>
    <linearGradient id="personGradient" x1="0%" y1="0%" x2="100%" y2="100%">
      <stop offset="0%" stop-color="#5e72e4" />
      <stop offset="100%" stop-color="#3a56d4" />
    </linearGradient>
    <filter id="glow" x="-20%" y="-20%" width="140%" height="140%">
      <feGaussianBlur stdDeviation="3" result="blur" />
      <feComposite in="SourceGraphic" in2="blur" operator="over" />
    </filter>
    <filter id="warmGlow" x="-30%" y="-30%" width="160%" height="160%">
      <feGaussianBlur stdDeviation="6" result="blur" />
      <feColorMatrix type="matrix" values="1 0 0 0 1  0 0.5 0 0 0.2  0 0 0.5 0 0.2  0 0 0 0.5 0" result="glow" />
      <feBlend in="SourceGraphic" in2="glow" mode="screen" />
    </filter>
    <filter id="shadow" x="-10%" y="-10%" width="120%" height="120%">
      <feDropShadow dx="0" dy="4" stdDeviation="3" flood-color="#000" flood-opacity="0.2" />
    </filter>
  </defs>
  
  <!-- Background Circle -->
  <circle cx="64" cy="64" r="60" fill="white" filter="url(#shadow)" />
  
  <!-- Comfort Heart Background -->
  <path d="M64,90 C90,70 110,40 64,32 C18,40 38,70 64,90 Z" fill="#ffeff5" />
  
  <!-- Comforting Person (Left) -->
  <g transform="translate(30, 32)">
    <path d="M20,16 C28,16 34,24 34,32 C34,40 28,48 20,48 C12,48 6,40 6,32 C6,24 12,16 20,16 Z" fill="url(#comfortGradient)" />
    <path d="M20,48 C30,48 38,54 38,72 L2,72 C2,54 10,48 20,48 Z" fill="url(#comfortGradient)" />
  </g>
  
  <!-- Person Being Comforted (Right, slightly lower to show leaning in) -->
  <g transform="translate(70, 40)">
    <path d="M20,16 C28,16 34,24 34,32 C34,40 28,48 20,48 C12,48 6,40 6,32 C6,24 12,16 20,16 Z" fill="url(#personGradient)" />
    <path d="M20,48 C30,48 38,54 38,72 L2,72 C2,54 10,48 20,48 Z" fill="url(#personGradient)" />
  </g>
  
  <!-- Comfort Embrace -->
  <path d="M46,66 C52,56 65,50 75,60" stroke="#ff7eb3" stroke-width="6" stroke-linecap="round" filter="url(#glow)" />
  
  <!-- Comfort Hearts -->
  <path d="M56,35 C60,31 66,31 70,35 C74,39 74,45 70,49 L64,55 L58,49 C54,45 54,39 58,35 Z" fill="#ff7eb3" opacity="0.7" filter="url(#warmGlow)" />
  <path d="M44,45 C46,43 49,43 51,45 C53,47 53,50 51,52 L48,55 L45,52 C43,50 43,47 44,45 Z" fill="#ff7eb3" opacity="0.5" filter="url(#warmGlow)" />
  <path d="M84,45 C86,43 89,43 91,45 C93,47 93,50 91,52 L88,55 L85,52 C83,50 83,47 84,45 Z" fill="#ff7eb3" opacity="0.5" filter="url(#warmGlow)" />
  
  <!-- Comfort Aura -->
  <path d="M45,68 Q64,55 83,68" stroke="#ff7eb3" stroke-width="2" stroke-dasharray="2 3" opacity="0.7" />
  <path d="M40,75 Q64,60 88,75" stroke="#ff7eb3" stroke-width="2" stroke-dasharray="2 3" opacity="0.7" />
</svg>