<?xml version="1.0" encoding="UTF-8"?>
<svg width="128" height="128" viewBox="0 0 128 128" fill="none" xmlns="http://www.w3.org/2000/svg">
  <defs>
    <linearGradient id="supportGradient" x1="0%" y1="0%" x2="100%" y2="100%">
      <stop offset="0%" stop-color="#5e72e4" />
      <stop offset="100%" stop-color="#3a56d4" />
    </linearGradient>
    <linearGradient id="personGradient" x1="0%" y1="0%" x2="100%" y2="100%">
      <stop offset="0%" stop-color="#36d6b7" />
      <stop offset="100%" stop-color="#29b99e" />
    </linearGradient>
    <filter id="glow" x="-20%" y="-20%" width="140%" height="140%">
      <feGaussianBlur stdDeviation="4" result="blur" />
      <feComposite in="SourceGraphic" in2="blur" operator="over" />
    </filter>
    <filter id="shadow" x="-10%" y="-10%" width="120%" height="120%">
      <feDropShadow dx="0" dy="4" stdDeviation="3" flood-color="#000" flood-opacity="0.2" />
    </filter>
  </defs>
  
  <!-- Background Circle -->
  <circle cx="64" cy="64" r="60" fill="white" filter="url(#shadow)" />
  
  <!-- Supporting Person (Left) -->
  <g transform="translate(28, 32)">
    <path d="M20,16 C28,16 34,24 34,32 C34,40 28,48 20,48 C12,48 6,40 6,32 C6,24 12,16 20,16 Z" fill="url(#supportGradient)" />
    <path d="M20,48 C30,48 38,54 38,72 L2,72 C2,54 10,48 20,48 Z" fill="url(#supportGradient)" />
  </g>
  
  <!-- Person Being Supported (Right) -->
  <g transform="translate(68, 32)">
    <path d="M20,16 C28,16 34,24 34,32 C34,40 28,48 20,48 C12,48 6,40 6,32 C6,24 12,16 20,16 Z" fill="url(#personGradient)" />
    <path d="M20,48 C30,48 38,54 38,72 L2,72 C2,54 10,48 20,48 Z" fill="url(#personGradient)" />
  </g>
  
  <!-- Supporting Arms -->
  <path d="M48,64 C56,52 72,52 80,64" stroke="#5e72e4" stroke-width="6" stroke-linecap="round" filter="url(#glow)" />
  
  <!-- Supportive Stars/Sparkles -->
  <path d="M40,40 L42,36 L44,40 L48,42 L44,44 L42,48 L40,44 L36,42 Z" fill="#5e72e4" opacity="0.8" />
  <path d="M80,36 L82,32 L84,36 L88,38 L84,40 L82,44 L80,40 L76,38 Z" fill="#36d6b7" opacity="0.8" />
  <path d="M62,28 L64,24 L66,28 L70,30 L66,32 L64,36 L62,32 L58,30 Z" fill="#ff7eb3" opacity="0.8" />
  
  <!-- Support Pillar Symbol -->
  <rect x="58" y="80" width="12" height="24" rx="2" fill="#36d6b7" opacity="0.6" />
  <rect x="52" y="76" width="24" height="6" rx="3" fill="#36d6b7" opacity="0.8" />
</svg>