<?xml version="1.0" encoding="UTF-8"?>
<svg width="240" height="240" viewBox="0 0 240 240" fill="none" xmlns="http://www.w3.org/2000/svg">
  <defs>
    <linearGradient id="encourageGradient" x1="0%" y1="0%" x2="100%" y2="100%">
      <stop offset="0%" stop-color="#ffbb13" />
      <stop offset="100%" stop-color="#ff9500" />
    </linearGradient>
    <linearGradient id="personGradient" x1="0%" y1="0%" x2="100%" y2="100%">
      <stop offset="0%" stop-color="#5e72e4" />
      <stop offset="100%" stop-color="#3a56d4" />
    </linearGradient>
    <radialGradient id="sunburstGradient" cx="50%" cy="50%" r="50%" fx="50%" fy="50%">
      <stop offset="0%" stop-color="#fffacc" stop-opacity="0.6" />
      <stop offset="50%" stop-color="#ffe066" stop-opacity="0.3" />
      <stop offset="100%" stop-color="#ffbb13" stop-opacity="0" />
    </radialGradient>
    <filter id="glow" x="-20%" y="-20%" width="140%" height="140%">
      <feGaussianBlur stdDeviation="6" result="blur" />
      <feComposite in="SourceGraphic" in2="blur" operator="over" />
    </filter>
    <filter id="sunGlow" x="-30%" y="-30%" width="160%" height="160%">
      <feGaussianBlur stdDeviation="10" result="blur" />
      <feColorMatrix type="matrix" values="1 0 0 0 1  0 0.8 0 0 0.8  0 0 0.4 0 0  0 0 0 0.6 0" result="glow" />
      <feBlend in="SourceGraphic" in2="glow" mode="screen" />
    </filter>
    <filter id="shadow" x="-10%" y="-10%" width="120%" height="120%">
      <feDropShadow dx="0" dy="4" stdDeviation="3" flood-color="#000" flood-opacity="0.2" />
    </filter>
  </defs>
  
  <!-- Background Circle -->
  <circle cx="120" cy="120" r="112" fill="white" filter="url(#shadow)" />
  
  <!-- Sunburst Background -->
  <circle cx="120" cy="120" r="95" fill="url(#sunburstGradient)" />
  
  <!-- Encouraging Rays -->
  <path d="M120,30 L120,50 M170,40 L160,55 M195,80 L175,85 M195,130 L175,125 M170,170 L160,155 M120,190 L120,170 M70,170 L80,155 M45,130 L65,125 M45,80 L65,85 M70,40 L80,55" 
        stroke="#ffbb13" stroke-width="4" stroke-linecap="round" opacity="0.6" />
  
  <!-- Encouraging Person (Left) - Standing tall and confident -->
  <g transform="translate(70, 55)">
    <path d="M24,0 C38,0 48,16 48,30 C48,44 38,60 24,60 C10,60 0,44 0,30 C0,16 10,0 24,0 Z" fill="url(#encourageGradient)" />
    <path d="M24,60 C38,60 50,80 50,115 L-2,115 C-2,80 10,60 24,60 Z" fill="url(#encourageGradient)" />
  </g>
  
  <!-- Person Being Encouraged (Right) - Initially hunched, now straightening up -->
  <g transform="translate(130, 60)">
    <path d="M24,0 C38,0 48,16 48,30 C48,44 38,60 24,60 C10,60 0,44 0,30 C0,16 10,0 24,0 Z" fill="url(#personGradient)" />
    <path d="M24,60 C38,60 50,80 50,115 L-2,115 C-2,80 10,60 24,60 Z" fill="url(#personGradient)" />
  </g>
  
  <!-- Encouraging Embrace - Hand on shoulder gesture -->
  <path d="M95,100 L135,90" stroke="#ffbb13" stroke-width="8" stroke-linecap="round" filter="url(#glow)" />
  <path d="M140,105 C120,95 105,100 90,115" stroke="#ffbb13" stroke-width="6" stroke-linecap="round" />
  
  <!-- Sun Symbol (Encouragement) -->
  <circle cx="120" cy="55" r="15" fill="#ffbb13" filter="url(#sunGlow)" />
  <path d="M110,55 L130,55 M120,45 L120,65" stroke="#fff" stroke-width="3" stroke-linecap="round" />
  
  <!-- Upward Motion Lines -->
  <path d="M100,140 L95,125 M110,145 L105,130 M120,148 L115,133 M130,145 L125,130 M140,140 L135,125" 
        stroke="#ffbb13" stroke-width="2" stroke-linecap="round" stroke-dasharray="0 4" />
        
  <!-- Stars of Encouragement -->
  <path d="M85,70 L88,77 L95,78 L90,83 L91,90 L85,87 L79,90 L80,83 L75,78 L82,77 Z" fill="#ffbb13" opacity="0.6" />
  <path d="M155,70 L158,77 L165,78 L160,83 L161,90 L155,87 L149,90 L150,83 L145,78 L152,77 Z" fill="#ffbb13" opacity="0.6" />
  <path d="M120,175 L123,182 L130,183 L125,188 L126,195 L120,192 L114,195 L115,188 L110,183 L117,182 Z" fill="#ffbb13" opacity="0.6" />
</svg>