<?xml version="1.0" encoding="UTF-8"?>
<svg width="240" height="240" viewBox="0 0 240 240" fill="none" xmlns="http://www.w3.org/2000/svg">
  <defs>
    <linearGradient id="person1Gradient" x1="0%" y1="0%" x2="100%" y2="100%">
      <stop offset="0%" stop-color="#5e72e4" />
      <stop offset="100%" stop-color="#3a56d4" />
    </linearGradient>
    <linearGradient id="person2Gradient" x1="0%" y1="0%" x2="100%" y2="100%">
      <stop offset="0%" stop-color="#36d6b7" />
      <stop offset="100%" stop-color="#29b99e" />
    </linearGradient>
    <linearGradient id="heartGradient" x1="0%" y1="0%" x2="100%" y2="100%">
      <stop offset="0%" stop-color="#ff7eb3" />
      <stop offset="100%" stop-color="#ff4081" />
    </linearGradient>
    <filter id="glow" x="-20%" y="-20%" width="140%" height="140%">
      <feGaussianBlur stdDeviation="6" result="blur" />
      <feComposite in="SourceGraphic" in2="blur" operator="over" />
    </filter>
    <filter id="shadow" x="-10%" y="-10%" width="120%" height="120%">
      <feDropShadow dx="0" dy="4" stdDeviation="3" flood-color="#000" flood-opacity="0.2" />
    </filter>
    <filter id="softshadow" x="-10%" y="-10%" width="120%" height="120%">
      <feDropShadow dx="0" dy="2" stdDeviation="4" flood-color="#000" flood-opacity="0.1" />
    </filter>
  </defs>
  
  <!-- Background Circle -->
  <circle cx="120" cy="120" r="112" fill="white" filter="url(#shadow)" />
  
  <!-- Subtle Friendship Pattern -->
  <path d="M40,40 L200,200 M45,200 L200,45" stroke="#f0f0f0" stroke-width="20" opacity="0.3" />
  <path d="M80,45 L45,80 M195,160 L160,195" stroke="#f0f0f0" stroke-width="15" opacity="0.3" />
  <path d="M120,30 L120,210 M30,120 L210,120" stroke="#f0f0f0" stroke-width="10" opacity="0.3" />
  
  <!-- Left Person (Friend 1) -->
  <g transform="translate(60, 64)">
    <path d="M24,0 C38,0 48,16 48,30 C48,44 38,60 24,60 C10,60 0,44 0,30 C0,16 10,0 24,0 Z" fill="url(#person1Gradient)" filter="url(#softshadow)" />
    <path d="M24,60 C38,60 50,80 50,115 L-2,115 C-2,80 10,60 24,60 Z" fill="url(#person1Gradient)" filter="url(#softshadow)" />
  </g>
  
  <!-- Right Person (Friend 2) -->
  <g transform="translate(152, 64)">
    <path d="M24,0 C38,0 48,16 48,30 C48,44 38,60 24,60 C10,60 0,44 0,30 C0,16 10,0 24,0 Z" fill="url(#person2Gradient)" filter="url(#softshadow)" />
    <path d="M24,60 C38,60 50,80 50,115 L-2,115 C-2,80 10,60 24,60 Z" fill="url(#person2Gradient)" filter="url(#softshadow)" />
  </g>
  
  <!-- Friendship Embrace -->
  <path d="M84,110 C90,90 98,70 120,70 C142,70 150,90 156,110" stroke="#36d6b7" stroke-width="10" stroke-linecap="round" fill="none" filter="url(#glow)" />
  <path d="M84,110 C98,100 108,95 120,95 C132,95 142,100 156,110" stroke="#5e72e4" stroke-width="6" stroke-linecap="round" fill="none" />
  
  <!-- Friendship Symbol - Intertwined Hands -->
  <path d="M100,140 C110,130 120,130 130,140 C140,150 140,160 130,170 C120,180 110,180 100,170 C90,160 90,150 100,140 Z" fill="#f0f0f0" stroke="#36d6b7" stroke-width="2" filter="url(#softshadow)" />
  <path d="M105,145 L135,175 M105,175 L135,145" stroke="#5e72e4" stroke-width="3" stroke-linecap="round" />
  
  <!-- Friendship Heart -->
  <path d="M120,55 C125,45 135,45 140,50 C145,55 145,65 140,70 L120,85 L100,70 C95,65 95,55 100,50 C105,45 115,45 120,55 Z" fill="url(#heartGradient)" opacity="0.7" filter="url(#glow)" />
</svg>