<?xml version="1.0" encoding="UTF-8"?>
<svg width="240" height="240" viewBox="0 0 240 240" fill="none" xmlns="http://www.w3.org/2000/svg">
  <defs>
    <linearGradient id="gratitudeGradient" x1="0%" y1="0%" x2="100%" y2="100%">
      <stop offset="0%" stop-color="#a78bfa" />
      <stop offset="100%" stop-color="#8b5cf6" />
    </linearGradient>
    <linearGradient id="personGradient" x1="0%" y1="0%" x2="100%" y2="100%">
      <stop offset="0%" stop-color="#5e72e4" />
      <stop offset="100%" stop-color="#3a56d4" />
    </linearGradient>
    <radialGradient id="gratitudeGlow" cx="50%" cy="50%" r="50%" fx="50%" fy="50%">
      <stop offset="0%" stop-color="#e9d5ff" stop-opacity="0.6" />
      <stop offset="40%" stop-color="#c4b5fd" stop-opacity="0.3" />
      <stop offset="100%" stop-color="#a78bfa" stop-opacity="0" />
    </radialGradient>
    <filter id="glow" x="-20%" y="-20%" width="140%" height="140%">
      <feGaussianBlur stdDeviation="6" result="blur" />
      <feComposite in="SourceGraphic" in2="blur" operator="over" />
    </filter>
    <filter id="purpleGlow" x="-30%" y="-30%" width="160%" height="160%">
      <feGaussianBlur stdDeviation="8" result="blur" />
      <feColorMatrix type="matrix" values="0.6 0 0 0 0.6  0 0.4 0 0 0.4  0 0 1 0 1  0 0 0 0.6 0" result="glow" />
      <feBlend in="SourceGraphic" in2="glow" mode="screen" />
    </filter>
    <filter id="shadow" x="-10%" y="-10%" width="120%" height="120%">
      <feDropShadow dx="0" dy="4" stdDeviation="3" flood-color="#000" flood-opacity="0.2" />
    </filter>
  </defs>
  
  <!-- Background Circle -->
  <circle cx="120" cy="120" r="112" fill="white" filter="url(#shadow)" />
  
  <!-- Gratitude Background -->
  <circle cx="120" cy="120" r="95" fill="url(#gratitudeGlow)" />
  
  <!-- Gratitude Rays (like thank you sun rays) -->
  <path d="M120,40 L120,60 M160,50 L150,65 M180,80 L165,90 M190,120 L170,120 M180,160 L165,150 M120,180 L120,160 M60,160 L75,150 M40,120 L60,120 M60,80 L75,90 M80,50 L90,65" 
        stroke="#a78bfa" stroke-width="3" stroke-linecap="round" opacity="0.4" />
  
  <!-- Person Expressing Gratitude (Left) - Slightly bowing -->
  <g transform="translate(60, 60)">
    <path d="M24,0 C38,0 48,16 48,30 C48,44 38,60 24,60 C10,60 0,44 0,30 C0,16 10,0 24,0 Z" fill="url(#gratitudeGradient)" />
    <path d="M24,60 C38,60 50,80 50,115 L-2,115 C-2,80 10,60 24,60 Z" fill="url(#gratitudeGradient)" />
  </g>
  
  <!-- Person Receiving Gratitude (Right) -->
  <g transform="translate(140, 60)">
    <path d="M24,0 C38,0 48,16 48,30 C48,44 38,60 24,60 C10,60 0,44 0,30 C0,16 10,0 24,0 Z" fill="url(#personGradient)" />
    <path d="M24,60 C38,60 50,80 50,115 L-2,115 C-2,80 10,60 24,60 Z" fill="url(#personGradient)" />
  </g>
  
  <!-- Gratitude Embrace -->
  <path d="M80,100 C90,85 130,85 140,100" stroke="#a78bfa" stroke-width="8" stroke-linecap="round" fill="none" filter="url(#glow)" />
  <path d="M90,115 C105,105 115,105 130,115" stroke="#5e72e4" stroke-width="5" stroke-linecap="round" fill="none" />
  
  <!-- Gratitude Flowers -->
  <g transform="translate(70, 40)" filter="url(#purpleGlow)">
    <circle cx="0" cy="0" r="6" fill="#a78bfa" />
    <path d="M0,-6 C3,-9 6,-9 9,-6 C12,-3 12,0 9,3 C6,6 3,6 0,3 C-3,0 -3,-3 0,-6 Z" fill="#a78bfa" opacity="0.8" />
    <path d="M9,0 C12,3 12,6 9,9 C6,12 3,12 0,9 C-3,6 -3,3 0,0 C3,-3 6,-3 9,0 Z" fill="#a78bfa" opacity="0.8" />
    <path d="M0,9 C-3,12 -6,12 -9,9 C-12,6 -12,3 -9,0 C-6,-3 -3,-3 0,0 C3,3 3,6 0,9 Z" fill="#a78bfa" opacity="0.8" />
    <path d="M-9,0 C-12,-3 -12,-6 -9,-9 C-6,-12 -3,-12 0,-9 C3,-6 3,-3 0,0 C-3,3 -6,3 -9,0 Z" fill="#a78bfa" opacity="0.8" />
  </g>
  
  <g transform="translate(170, 40)" filter="url(#purpleGlow)">
    <circle cx="0" cy="0" r="6" fill="#a78bfa" />
    <path d="M0,-6 C3,-9 6,-9 9,-6 C12,-3 12,0 9,3 C6,6 3,6 0,3 C-3,0 -3,-3 0,-6 Z" fill="#a78bfa" opacity="0.8" />
    <path d="M9,0 C12,3 12,6 9,9 C6,12 3,12 0,9 C-3,6 -3,3 0,0 C3,-3 6,-3 9,0 Z" fill="#a78bfa" opacity="0.8" />
    <path d="M0,9 C-3,12 -6,12 -9,9 C-12,6 -12,3 -9,0 C-6,-3 -3,-3 0,0 C3,3 3,6 0,9 Z" fill="#a78bfa" opacity="0.8" />
    <path d="M-9,0 C-12,-3 -12,-6 -9,-9 C-6,-12 -3,-12 0,-9 C3,-6 3,-3 0,0 C-3,3 -6,3 -9,0 Z" fill="#a78bfa" opacity="0.8" />
  </g>
  
  <!-- Thank You Text Symbol -->
  <g transform="translate(120, 150)">
    <circle cx="0" cy="0" r="20" fill="white" stroke="#a78bfa" stroke-width="2" />
    <path d="M-8,-5 L-8,5 M-8,0 L-3,0 M-3,-5 L-3,5 M0,-5 L0,5 M0,0 L5,0 M8,-5 L3,5 M3,-5 L8,5" stroke="#a78bfa" stroke-width="2" stroke-linecap="round" />
  </g>
</svg>