<?xml version="1.0" encoding="UTF-8"?>
<svg width="240" height="240" viewBox="0 0 240 240" fill="none" xmlns="http://www.w3.org/2000/svg">
  <defs>
    <linearGradient id="loveGradient" x1="0%" y1="0%" x2="100%" y2="100%">
      <stop offset="0%" stop-color="#ff7eb3" />
      <stop offset="100%" stop-color="#ff4081" />
    </linearGradient>
    <linearGradient id="personGradient" x1="0%" y1="0%" x2="100%" y2="100%">
      <stop offset="0%" stop-color="#5e72e4" />
      <stop offset="100%" stop-color="#3a56d4" />
    </linearGradient>
    <radialGradient id="heartGlow" cx="50%" cy="50%" r="50%" fx="50%" fy="50%">
      <stop offset="0%" stop-color="#ffd6e7" stop-opacity="0.8" />
      <stop offset="40%" stop-color="#ffb6d9" stop-opacity="0.4" />
      <stop offset="100%" stop-color="#ff7eb3" stop-opacity="0" />
    </radialGradient>
    <filter id="glow" x="-20%" y="-20%" width="140%" height="140%">
      <feGaussianBlur stdDeviation="6" result="blur" />
      <feComposite in="SourceGraphic" in2="blur" operator="over" />
    </filter>
    <filter id="loveGlow" x="-30%" y="-30%" width="160%" height="160%">
      <feGaussianBlur stdDeviation="8" result="blur" />
      <feColorMatrix type="matrix" values="1 0 0 0 1  0 0.5 0 0 0.5  0 0 0.5 0 0.5  0 0 0 0.6 0" result="glow" />
      <feBlend in="SourceGraphic" in2="glow" mode="screen" />
    </filter>
    <filter id="shadow" x="-10%" y="-10%" width="120%" height="120%">
      <feDropShadow dx="0" dy="4" stdDeviation="3" flood-color="#000" flood-opacity="0.2" />
    </filter>
  </defs>
  
  <!-- Background Circle -->
  <circle cx="120" cy="120" r="112" fill="white" filter="url(#shadow)" />
  
  <!-- Love Background Glow -->
  <circle cx="120" cy="120" r="95" fill="url(#heartGlow)" />
  
  <!-- Person 1 (Left) -->
  <g transform="translate(55, 60)">
    <path d="M24,0 C38,0 48,16 48,30 C48,44 38,60 24,60 C10,60 0,44 0,30 C0,16 10,0 24,0 Z" fill="url(#loveGradient)" />
    <path d="M24,60 C38,60 50,80 50,115 L-2,115 C-2,80 10,60 24,60 Z" fill="url(#loveGradient)" />
  </g>
  
  <!-- Person 2 (Right) -->
  <g transform="translate(145, 60)">
    <path d="M24,0 C38,0 48,16 48,30 C48,44 38,60 24,60 C10,60 0,44 0,30 C0,16 10,0 24,0 Z" fill="url(#personGradient)" />
    <path d="M24,60 C38,60 50,80 50,115 L-2,115 C-2,80 10,60 24,60 Z" fill="url(#personGradient)" />
  </g>
  
  <!-- Love Embrace - Arms form a heart shape together -->
  <path d="M75,95 C65,80 90,65 105,85 C120,65 145,80 135,95" stroke="#ff7eb3" stroke-width="8" stroke-linecap="round" fill="none" filter="url(#glow)" />
  <path d="M85,110 C95,90 105,85 120,95 C135,85 145,90 155,110" stroke="#5e72e4" stroke-width="6" stroke-linecap="round" fill="none" />
  
  <!-- Central Heart -->
  <path d="M120,60 C130,45 150,45 160,55 C170,65 170,85 160,95 L120,130 L80,95 C70,85 70,65 80,55 C90,45 110,45 120,60 Z" fill="url(#loveGradient)" opacity="0.7" filter="url(#loveGlow)" />
  
  <!-- Floating Hearts -->
  <path d="M70,40 C75,35 82,35 87,40 C92,45 92,55 87,60 L70,75 L53,60 C48,55 48,45 53,40 C58,35 65,35 70,40 Z" fill="#ff7eb3" opacity="0.5" />
  <path d="M170,40 C175,35 182,35 187,40 C192,45 192,55 187,60 L170,75 L153,60 C148,55 148,45 153,40 C158,35 165,35 170,40 Z" fill="#ff7eb3" opacity="0.5" />
  <path d="M120,185 C125,180 132,180 137,185 C142,190 142,200 137,205 L120,220 L103,205 C98,200 98,190 103,185 C108,180 115,180 120,185 Z" fill="#ff7eb3" opacity="0.5" />
  
  <!-- Love Sparkles -->
  <path d="M60,100 L63,103 M48,120 L51,123 M60,140 L63,143" stroke="#ff7eb3" stroke-width="2" stroke-linecap="round" />
  <path d="M180,100 L177,103 M192,120 L189,123 M180,140 L177,143" stroke="#ff7eb3" stroke-width="2" stroke-linecap="round" />
  <path d="M115,35 L120,30 L125,35 M115,45 L120,50 L125,45" stroke="#ff7eb3" stroke-width="2" stroke-linecap="round" />
</svg>