<svg xmlns="http://www.w3.org/2000/svg" viewBox="0 0 100 100" width="100" height="100">
  <!-- Group Hug Icon -->
  <defs>
    <radialGradient id="face-gradient-main" cx="50%" cy="50%" r="50%" fx="50%" fy="50%">
      <stop offset="0%" stop-color="#A5D6A7" />
      <stop offset="100%" stop-color="#4CAF50" />
    </radialGradient>
    <radialGradient id="face-gradient-left" cx="50%" cy="50%" r="50%" fx="50%" fy="50%">
      <stop offset="0%" stop-color="#81C784" />
      <stop offset="100%" stop-color="#388E3C" />
    </radialGradient>
    <radialGradient id="face-gradient-right" cx="50%" cy="50%" r="50%" fx="50%" fy="50%">
      <stop offset="0%" stop-color="#81C784" />
      <stop offset="100%" stop-color="#388E3C" />
    </radialGradient>
  </defs>
  
  <!-- Background Circle -->
  <circle cx="50" cy="50" r="48" fill="#E8F5E9" opacity="0.3" />
  
  <!-- Side Faces -->
  <circle cx="25" cy="55" r="20" fill="url(#face-gradient-left)" stroke="#4CAF50" stroke-width="2" />
  <circle cx="75" cy="55" r="20" fill="url(#face-gradient-right)" stroke="#4CAF50" stroke-width="2" />
  
  <!-- Main Face -->
  <circle cx="50" cy="40" r="25" fill="url(#face-gradient-main)" stroke="#4CAF50" stroke-width="2" />
  
  <!-- Eyes for Main Face -->
  <circle cx="40" cy="35" r="3" fill="#3E2723" />
  <circle cx="60" cy="35" r="3" fill="#3E2723" />
  
  <!-- Smile for Main Face -->
  <path d="M40 45 Q50 55 60 45" fill="none" stroke="#3E2723" stroke-width="2" stroke-linecap="round" />
  
  <!-- Eyes for Left Face -->
  <circle cx="20" cy="50" r="2" fill="#3E2723" />
  <circle cx="30" cy="50" r="2" fill="#3E2723" />
  
  <!-- Smile for Left Face -->
  <path d="M20 60 Q25 63 30 60" fill="none" stroke="#3E2723" stroke-width="2" stroke-linecap="round" />
  
  <!-- Eyes for Right Face -->
  <circle cx="70" cy="50" r="2" fill="#3E2723" />
  <circle cx="80" cy="50" r="2" fill="#3E2723" />
  
  <!-- Smile for Right Face -->
  <path d="M70 60 Q75 63 80 60" fill="none" stroke="#3E2723" stroke-width="2" stroke-linecap="round" />
  
  <!-- Group Hug Arms -->
  <path d="M10 65 Q25 80 50 80 Q75 80 90 65" fill="none" stroke="#4CAF50" stroke-width="4" stroke-linecap="round" />
</svg>