<?xml version="1.0" encoding="UTF-8"?>
<svg width="24" height="24" viewBox="0 0 24 24" fill="none" xmlns="http://www.w3.org/2000/svg">
  <defs>
    <linearGradient id="notifyGradient" x1="0%" y1="0%" x2="100%" y2="100%">
      <stop offset="0%" stop-color="#ff7eb3" />
      <stop offset="100%" stop-color="#ff4081" />
    </linearGradient>
  </defs>
  
  <!-- Bell Shape -->
  <path d="M12,3 C14.76,3 17,5.24 17,8 L17,12 L18,16 L6,16 L7,12 L7,8 C7,5.24 9.24,3 12,3 Z" stroke="url(#notifyGradient)" stroke-width="1.5" fill="none" />
  
  <!-- Bell Bottom -->
  <path d="M10,16 L10,17 C10,18.1 10.9,19 12,19 C13.1,19 14,18.1 14,17 L14,16" stroke="url(#notifyGradient)" stroke-width="1.5" fill="none" />
  
  <!-- Bell Top -->
  <path d="M12,3 L12,1" stroke="#ff7eb3" stroke-width="1.5" stroke-linecap="round" />
  
  <!-- Notification Ripples -->
  <path d="M19,8 C19,8 19.5,10 19.5,12" stroke="#ff7eb3" stroke-width="1" stroke-linecap="round" stroke-dasharray="1 2" opacity="0.7" />
  <path d="M5,8 C5,8 4.5,10 4.5,12" stroke="#ff7eb3" stroke-width="1" stroke-linecap="round" stroke-dasharray="1 2" opacity="0.7" />
  
  <!-- Notification Dot (Optional, for unread status) -->
  <circle cx="17" cy="6" r="2.5" fill="#ff4081" />
</svg>