<?xml version="1.0" encoding="UTF-8"?>
<svg width="24" height="24" viewBox="0 0 24 24" fill="none" xmlns="http://www.w3.org/2000/svg">
  <defs>
    <linearGradient id="settingsGradient" x1="0%" y1="0%" x2="100%" y2="100%">
      <stop offset="0%" stop-color="#5e72e4" />
      <stop offset="100%" stop-color="#3a56d4" />
    </linearGradient>
  </defs>
  
  <!-- Outer gear -->
  <path d="M18.3,12 C18.3,11.7 18.2,11.3 18.2,11 L20.3,9.3 C20.5,9.1 20.6,8.9 20.5,8.6 L18.8,5.4 C18.7,5.1 18.4,5 18.1,5.1 L15.8,6 C15.4,5.7 14.9,5.5 14.5,5.3 L14.1,2.9 C14.1,2.6 13.8,2.3 13.5,2.3 L9.5,2.3 C9.2,2.3 8.9,2.6 8.9,2.9 L8.5,5.3 C8,5.5 7.6,5.7 7.2,6 L4.9,5.1 C4.6,5 4.3,5.1 4.2,5.4 L2.5,8.6 C2.4,8.9 2.4,9.2 2.7,9.3 L4.8,11 C4.8,11.3 4.7,11.7 4.7,12 C4.7,12.3 4.8,12.7 4.8,13 L2.7,14.7 C2.5,14.9 2.4,15.1 2.5,15.4 L4.2,18.6 C4.3,18.9 4.6,19 4.9,18.9 L7.2,18 C7.6,18.3 8.1,18.5 8.5,18.7 L8.9,21.1 C8.9,21.4 9.2,21.7 9.5,21.7 L13.5,21.7 C13.8,21.7 14.1,21.4 14.1,21.1 L14.5,18.7 C15,18.5 15.4,18.3 15.8,18 L18.1,18.9 C18.4,19 18.7,18.9 18.8,18.6 L20.5,15.4 C20.6,15.1 20.6,14.8 20.3,14.7 L18.2,13 C18.2,12.7 18.3,12.3 18.3,12 Z" stroke="url(#settingsGradient)" stroke-width="1.5" fill="none" />
  
  <!-- Inner circle -->
  <circle cx="12" cy="12" r="3" stroke="url(#settingsGradient)" stroke-width="1.5" fill="none" />
</svg>