<svg width="64" height="64" viewBox="0 0 64 64" xmlns="http://www.w3.org/2000/svg">
  <!-- Fox hug icon - Two foxes hugging -->
  <g transform="translate(0, 0)">
    <!-- First fox (left) -->
    <path d="M15 40C14 36 14 32 15 28C16 24 16 15 15 12C13 14 8 15 8 20C8 24 10 26 12 28C10 30 8 35 10 38C12 41 14 42 15 40Z" fill="#FF8C00" stroke="#333" stroke-width="0.5" />
    <path d="M15 28C18 25 21 24 25 24C28 25 30 28 30 32C30 35 28 38 25 40C22 41 18 40 15 40C14 36 14 32 15 28Z" fill="#FF8C00" stroke="#333" stroke-width="0.5" />
    <circle cx="20" cy="32" r="1" fill="#333" /> <!-- Eye -->
    <path d="M18 35C19 36 22 36 23 35" fill="none" stroke="#333" stroke-width="0.5" /> <!-- Smile -->
    
    <!-- Second fox (right) -->
    <path d="M49 40C50 36 50 32 49 28C48 24 48 15 49 12C51 14 56 15 56 20C56 24 54 26 52 28C54 30 56 35 54 38C52 41 50 42 49 40Z" fill="#FF8C00" stroke="#333" stroke-width="0.5" />
    <path d="M49 28C46 25 43 24 39 24C36 25 34 28 34 32C34 35 36 38 39 40C42 41 46 40 49 40C50 36 50 32 49 28Z" fill="#FF8C00" stroke="#333" stroke-width="0.5" />
    <circle cx="44" cy="32" r="1" fill="#333" /> <!-- Eye -->
    <path d="M46 35C45 36 42 36 41 35" fill="none" stroke="#333" stroke-width="0.5" /> <!-- Smile -->
    
    <!-- Heart between them -->
    <path d="M32 36C35 33 38 36 39 38C40 40 37 43 32 45C27 43 24 40 25 38C26 36 29 33 32 36Z" fill="#FF3366" />
  </g>
</svg>