<?xml version="1.0" encoding="UTF-8"?>
<svg width="24" height="24" viewBox="0 0 24 24" fill="none" xmlns="http://www.w3.org/2000/svg">
  <defs>
    <linearGradient id="homeGradient" x1="0%" y1="0%" x2="100%" y2="100%">
      <stop offset="0%" stop-color="#5e72e4" />
      <stop offset="100%" stop-color="#3a56d4" />
    </linearGradient>
  </defs>
  
  <!-- House Structure -->
  <path d="M3,10.5 L3,19.5 C3,20.33 3.67,21 4.5,21 L19.5,21 C20.33,21 21,20.33 21,19.5 L21,10.5 L12,3 L3,10.5 Z" stroke="url(#homeGradient)" stroke-width="1.5" stroke-linejoin="round" fill="none" />
  
  <!-- Door -->
  <path d="M9,21 L9,15 C9,13.9 9.9,13 11,13 L13,13 C14.1,13 15,13.9 15,15 L15,21" stroke="url(#homeGradient)" stroke-width="1.5" stroke-linecap="round" fill="none" />
  
  <!-- Roof Highlight -->
  <path d="M4.5,10.5 L19.5,10.5" stroke="url(#homeGradient)" stroke-width="1" stroke-linecap="round" />
  
  <!-- Chimney (Optional) -->
  <path d="M16,7 L16,4 L18,4 L18,8.5" stroke="#5e72e4" stroke-width="1.5" stroke-linecap="round" stroke-linejoin="round" fill="none" />
</svg>