<?xml version="1.0" encoding="UTF-8"?>
<svg width="100px" height="100px" viewBox="0 0 100 100" version="1.1" xmlns="http://www.w3.org/2000/svg">
  <circle cx="50" cy="50" r="48" fill="#1E88E5" stroke="#FFFFFF" stroke-width="2"/>
  <g fill="#FFFFFF">
    <circle cx="30" cy="35" r="10"/>
    <circle cx="50" cy="30" r="10"/>
    <circle cx="70" cy="35" r="10"/>
    <path d="M30,48c-7.7,0-14,6.3-14,14v8h28v-8C44,54.3,37.7,48,30,48z"/>
    <path d="M70,48c-7.7,0-14,6.3-14,14v8h28v-8C84,54.3,77.7,48,70,48z"/>
    <path d="M50,43c-7.7,0-14,6.3-14,14v8h28v-8C64,49.3,57.7,43,50,43z"/>
  </g>
</svg>