<?xml version="1.0" encoding="UTF-8"?>
<svg width="100px" height="100px" viewBox="0 0 100 100" version="1.1" xmlns="http://www.w3.org/2000/svg">
  <circle cx="50" cy="50" r="48" fill="#7C5CBF" stroke="#FFFFFF" stroke-width="2"/>
  <g fill="#FFFFFF" transform="translate(20, 20)">
    <path d="M30,20c0-5.5-4.5-10-10-10s-10,4.5-10,10c0,2.6,1,5,2.6,6.8l-0.2,0.2c-2.1,1.9-3.4,4.6-3.4,7.6V38h22v-3.4
      c0-3-1.3-5.7-3.4-7.6l-0.2-0.2C29,25,30,22.6,30,20z M13,20c0-3.9,3.1-7,7-7s7,3.1,7,7s-3.1,7-7,7S13,23.9,13,20z M13,34.6V35h14
      v-0.4c0-2.3-1.1-4.4-2.8-5.9l-0.8-0.7l0.7-0.8c1.7-1.9,2.8-4.4,2.8-7.2c0-1.2-0.2-2.3-0.5-3.4C23.9,16.2,21.1,16,18,16
      c-0.3,1-0.5,2.1-0.5,3.3c0,2.8,1.1,5.3,2.8,7.2l0.7,0.8l-0.8,0.7C17.1,30.2,16,32.3,16,34.6V35h-3V34.6z"/>
    <path d="M50,10C39.5,10,31,18.5,31,29v10.6C31,45.5,36.5,51,42.4,51h15.2C63.5,51,69,45.5,69,39.6V29C69,18.5,60.5,10,50,10z
      M66,39.6C66,43.8,62.3,48,57.6,48H42.4C37.7,48,34,43.8,34,39.6V29c0-8.8,7.2-16,16-16s16,7.2,16,16V39.6z"/>
  </g>
</svg>